HIERARCHY
ROOT hip
{
  OFFSET 0 0 0
  CHANNELS 6 Xposition Yposition Zposition Zrotation Yrotation Xrotation
  JOINT abdomen
  {
    OFFSET 0 20.6881 -0.73152
    CHANNELS 3 Zrotation Xrotation Yrotation
    JOINT chest
    {
      OFFSET 0 11.7043 -0.48768
      CHANNELS 3 Zrotation Xrotation Yrotation
      JOINT neck
      {
        OFFSET 0 22.1894 -2.19456
        CHANNELS 3 Zrotation Xrotation Yrotation
        JOINT head
        {
          OFFSET -0.24384 7.07133 1.2192
          CHANNELS 3 Zrotation Xrotation Yrotation
          JOINT leftEye
          {
            OFFSET 4.14528 8.04674 8.04672
            CHANNELS 3 Zrotation Xrotation Yrotation
            End Site
            {
              OFFSET 1 0 0
            }
          }
          JOINT rightEye
          {
            OFFSET -3.6576 8.04674 8.04672
            CHANNELS 3 Zrotation Xrotation Yrotation
            End Site
            {
              OFFSET 1 0 0
            }
          }
        }
      }
      JOINT rCollar
      {
        OFFSET -2.68224 19.2634 -4.8768
        CHANNELS 3 Zrotation Xrotation Yrotation
        JOINT rShldr
        {
          OFFSET -8.77824 -1.95073 1.46304
          CHANNELS 3 Zrotation Xrotation Yrotation
          JOINT rForeArm
          {
            OFFSET -28.1742 -1.7115 0.48768
            CHANNELS 3 Zrotation Xrotation Yrotation
            JOINT rHand
            {
              OFFSET -22.5879 0.773209 7.07136
              CHANNELS 3 Zrotation Xrotation Yrotation
              JOINT rThumb1
              {
                OFFSET -1.2192 -0.487915 3.41376
                CHANNELS 3 Zrotation Xrotation Yrotation
                JOINT rThumb2
                {
                  OFFSET -3.37035 -0.52449 3.41376
                  CHANNELS 3 Zrotation Xrotation Yrotation
                  End Site
                  {
                    OFFSET -1.78271 -1.18214 1.43049
                  }
                }
              }
              JOINT rIndex1
              {
                OFFSET -7.75947 0.938293 5.60832
                CHANNELS 3 Zrotation Xrotation Yrotation
                JOINT rIndex2
                {
                  OFFSET -2.54057 -0.884171 1.56538
                  CHANNELS 3 Zrotation Xrotation Yrotation
                  End Site
                  {
                    OFFSET -1.62519 -0.234802 1.16502
                  }
                }
              }
              JOINT rMid1
              {
                OFFSET -8.24714 1.18213 3.41376
                CHANNELS 3 Zrotation Xrotation Yrotation
                JOINT rMid2
                {
                  OFFSET -3.10165 -0.590103 1.0647
                  CHANNELS 3 Zrotation Xrotation Yrotation
                  End Site
                  {
                    OFFSET -2.48547 -0.328903 0.83742
                  }
                }
              }
              JOINT rRing1
              {
                OFFSET -8.82822 0.546677 1.51678
                CHANNELS 3 Zrotation Xrotation Yrotation
                JOINT rRing2
                {
                  OFFSET -2.60934 -0.819778 -0.0198488
                  CHANNELS 3 Zrotation Xrotation Yrotation
                  End Site
                  {
                    OFFSET -2.33842 -0.294052 0.168128
                  }
                }
              }
              JOINT rPinky1
              {
                OFFSET -8.27202 -0.0477905 -0.4584
                CHANNELS 3 Zrotation Xrotation Yrotation
                JOINT rPinky2
                {
                  OFFSET -1.82734 -0.647385 -0.700984
                  CHANNELS 3 Zrotation Xrotation Yrotation
                  End Site
                  {
                    OFFSET -1.69225 -0.51767 -0.607171
                  }
                }
              }
            }
          }
        }
      }
      JOINT lCollar
      {
        OFFSET 2.68224 19.2634 -4.8768
        CHANNELS 3 Zrotation Xrotation Yrotation
        JOINT lShldr
        {
          OFFSET 8.77824 -1.95073 1.46304
          CHANNELS 3 Zrotation Xrotation Yrotation
          JOINT lForeArm
          {
            OFFSET 28.1742 -1.7115 0.48768
            CHANNELS 3 Zrotation Xrotation Yrotation
            JOINT lHand
            {
              OFFSET 22.5879 0.773209 7.07136
              CHANNELS 3 Zrotation Xrotation Yrotation
              JOINT lThumb1
              {
                OFFSET 1.2192 -0.487915 3.41376
                CHANNELS 3 Zrotation Xrotation Yrotation
                JOINT lThumb2
                {
                  OFFSET 3.37035 -0.52449 3.41376
                  CHANNELS 3 Zrotation Xrotation Yrotation
                  End Site
                  {
                    OFFSET 1.78271 -1.18214 1.43049
                  }
                }
              }
              JOINT lIndex1
              {
                OFFSET 7.75947 0.938293 5.60832
                CHANNELS 3 Zrotation Xrotation Yrotation
                JOINT lIndex2
                {
                  OFFSET 2.54057 -0.884171 1.56538
                  CHANNELS 3 Zrotation Xrotation Yrotation
                  End Site
                  {
                    OFFSET 1.62519 -0.234802 1.16502
                  }
                }
              }
              JOINT lMid1
              {
                OFFSET 8.24714 1.18213 3.41376
                CHANNELS 3 Zrotation Xrotation Yrotation
                JOINT lMid2
                {
                  OFFSET 3.10165 -0.590103 1.0647
                  CHANNELS 3 Zrotation Xrotation Yrotation
                  End Site
                  {
                    OFFSET 2.48547 -0.328903 0.83742
                  }
                }
              }
              JOINT lRing1
              {
                OFFSET 8.82822 0.546677 1.51678
                CHANNELS 3 Zrotation Xrotation Yrotation
                JOINT lRing2
                {
                  OFFSET 2.60934 -0.819778 -0.0198488
                  CHANNELS 3 Zrotation Xrotation Yrotation
                  End Site
                  {
                    OFFSET 2.33842 -0.294052 0.168128
                  }
                }
              }
              JOINT lPinky1
              {
                OFFSET 8.27202 -0.0477905 -0.4584
                CHANNELS 3 Zrotation Xrotation Yrotation
                JOINT lPinky2
                {
                  OFFSET 1.82734 -0.647385 -0.700984
                  CHANNELS 3 Zrotation Xrotation Yrotation
                  End Site
                  {
                    OFFSET 1.69225 -0.51767 -0.607171
                  }
                }
              }
            }
          }
        }
      }
    }
  }
  JOINT rButtock
  {
    OFFSET -8.77824 4.35084 1.2192
    CHANNELS 3 Zrotation Xrotation Yrotation
    JOINT rThigh
    {
      OFFSET 0 -1.70687 -2.19456
      CHANNELS 3 Zrotation Xrotation Yrotation
      JOINT rShin
      {
        OFFSET 0 -36.8199 0.73152
        CHANNELS 3 Zrotation Xrotation Yrotation
        JOINT rFoot
        {
          OFFSET 0.73152 -45.1104 -5.12064
          CHANNELS 3 Zrotation Xrotation Yrotation
          End Site
          {
            OFFSET -1.1221 -3.69964 12.103
          }
        }
      }
    }
  }
  JOINT lButtock
  {
    OFFSET 8.77824 4.35084 1.2192
    CHANNELS 3 Zrotation Xrotation Yrotation
    JOINT lThigh
    {
      OFFSET 0 -1.70687 -2.19456
      CHANNELS 3 Zrotation Xrotation Yrotation
      JOINT lShin
      {
        OFFSET 0 -36.8199 0.73152
        CHANNELS 3 Zrotation Xrotation Yrotation
        JOINT lFoot
        {
          OFFSET -0.73152 -45.1104 -5.12064
          CHANNELS 3 Zrotation Xrotation Yrotation
          End Site
          {
            OFFSET 1.1221 -3.69964 12.103
          }
        }
      }
    }
  }
}
MOTION
Frames:	5
Frame Time:	0.00833333
-4.17419 84.2564 38.3622 0.0 0.0 0.0 -1.24151 -0.00398119 -0.0340789 -0.342494 -0.00249264 -0.0593272 2.39228e-14 0.0 1.73937e-16 7.14382e-14 3.18055e-15 4.95409e-16 -0.0 0.0 0.0 -0.0 0.0 0.0 1.22741e-14 1.47535e-17 2.48481e-16 2.52099e-13 3.66509e-16 3.18055e-15 4.30235e-12 -1.27779e-12 -6.36111e-15 4.92754e-11 1.35598e-12 4.35736e-13 1.16223e-10 1.6661e-13 9.28722e-13 2.00701e-10 2.8625e-13 1.58153e-12 1.1623e-10 1.7016e-13 9.12819e-13 7.73091 5.47488 0.417314 1.16224e-10 1.67079e-13 9.28722e-13 2.90554 0.965183 0.102902 1.16235e-10 1.67079e-13 9.24746e-13 10.2786 0.731801 0.0259123 1.16219e-10 1.67377e-13 9.31903e-13 2.22167 -0.733487 -0.20892 1.20778e-14 1.55301e-17 -1.49089e-16 2.47796e-13 4.53478e-16 1.59028e-15 4.30732e-12 1.29886e-12 -6.36111e-15 4.92502e-11 -1.22737e-12 4.48458e-13 1.1619e-10 1.51643e-13 9.25541e-13 2.0067e-10 2.63986e-13 1.60538e-12 1.16183e-10 1.55847e-13 9.38264e-13 -7.73091 5.47488 -0.417314 1.1619e-10 1.51971e-13 9.25541e-13 -2.90554 0.965183 -0.102902 1.16178e-10 1.5207e-13 9.28722e-13 -10.2786 0.731801 -0.0259123 1.16196e-10 1.51474e-13 9.1918e-13 -2.22167 -0.733487 0.20892 -2.03217e-16 0.0 -3.88251e-19 -0.453821 -1.92099 -0.00952743 -0.00915574 -2.07857 -0.0755534 -0.487473 3.99699 0.136656 2.03217e-16 0.0 3.88251e-19 -1.43726 -5.97115 0.129662 -0.00126432 5.25796 -0.0454146 0.507806 0.710743 -0.0722729
-4.35575 84.0969 37.2469 -1.2365 1.1563 1.2255 -1.14981 -0.125794 -0.0539934 -0.0680788 -0.526857 -0.0458709 -0.878687 1.38826 -0.993617 2.07258 -0.47359 -1.77376 -0.0 0.0 0.0 -0.0 0.0 0.0 1.91955e-14 -1.70553e-15 7.34144e-15 23.1163 9.04518 -2.63635 -5.99342 -3.20326 8.78114 0.0783731 6.21673 0.855239 6.72437e-11 1.38248e-10 -1.0392e-10 1.14429e-10 2.40114e-10 -1.7939e-10 6.72502e-11 1.38249e-10 -1.03934e-10 7.73091 5.47488 0.417314 6.72441e-11 1.38248e-10 -1.03923e-10 2.90554 0.965183 0.102902 6.72555e-11 1.38246e-10 -1.03924e-10 10.2786 0.731801 0.0259123 6.72387e-11 1.38246e-10 -1.03917e-10 2.22167 -0.733487 -0.20892 1.90508e-14 -1.70455e-15 6.96872e-15 -23.6478 8.35957 1.92399 5.74794 -3.01082 -8.50196 -0.0171904 2.909 -0.406931 -1.26063e-10 -3.13052e-10 -5.70057e-11 -2.18651e-10 -5.404e-10 -9.61844e-11 -1.2607e-10 -3.1305e-10 -5.6994e-11 -7.73091 5.47488 -0.417314 -1.26064e-10 -3.13055e-10 -5.70037e-11 -2.90554 0.965183 -0.102902 -1.26074e-10 -3.13055e-10 -5.70033e-11 -10.2786 0.731801 -0.0259123 -1.26057e-10 -3.13054e-10 -5.70109e-11 -2.22167 -0.733487 0.20892 -2.03217e-16 0.0 -3.88251e-19 -1.71695 -0.00913253 1.0461 -0.00316445 -1.45299 -0.0346018 -0.67551 -2.0173 -3.76034 2.03217e-16 0.0 3.88251e-19 1.07222 -6.60557 -2.41739 -0.00450873 9.44786 -0.147093 0.702136 -4.03759 2.58116
-4.35925 84.0966 37.2461 -1.2558 1.1623 1.2288 -1.0534 -0.256679 -0.0740402 0.222147 -1.08027 -0.0313487 -1.75472 2.85755 -2.04767 4.23346 -0.975983 -3.65269 -0.0 0.0 0.0 -0.0 0.0 0.0 2.67295e-14 -3.31114e-15 1.56015e-14 48.503 18.543 -5.65116 -11.2743 -6.33897 18.151 -0.0452304 12.7854 1.79367 2.06685e-11 2.82902e-10 -2.16471e-10 3.22058e-11 4.91515e-10 -3.73777e-10 2.06743e-11 2.82899e-10 -2.16483e-10 7.73091 5.47488 0.417314 2.06683e-11 2.829e-10 -2.16477e-10 2.90554 0.965183 0.102902 2.068e-11 2.82896e-10 -2.16475e-10 10.2786 0.731801 0.0259123 2.06621e-11 2.82897e-10 -2.16468e-10 2.22167 -0.733487 -0.20892 2.66397e-14 -3.30992e-15 1.52536e-14 -49.2821 17.1661 4.09878 10.8628 -5.97211 -17.563 0.00979015 5.98377 -0.840622 -3.94652e-10 -6.59938e-10 -1.16066e-10 -6.83513e-10 -1.13915e-09 -1.95641e-10 -3.94658e-10 -6.59939e-10 -1.16055e-10 -7.73091 5.47488 -0.417314 -3.94653e-10 -6.59944e-10 -1.16062e-10 -2.90554 0.965183 -0.102902 -3.94662e-10 -6.59944e-10 -1.16064e-10 -10.2786 0.731801 -0.0259123 -3.94644e-10 -6.59942e-10 -1.1607e-10 -2.22167 -0.733487 0.20892 -2.03217e-16 0.0 -3.88251e-19 -3.12812 2.01031 2.16352 0.00219684 -0.791605 0.00866031 -1.76843 -8.30542 -7.95873 2.03217e-16 0.0 3.88251e-19 3.66397 -7.25969 -5.11811 0.00868664 13.8773 -0.25825 1.39042 -9.0268 5.44102
-4.35881 84.0962 37.244 -1.2545 1.167 1.239 -0.966671 -0.369419 -0.0938239 0.48149 -1.57559 -0.0189598 -2.49136 4.15977 -2.98786 6.1299 -1.41532 -5.32273 -0.0 0.0 0.0 -0.0 0.0 0.0 3.30384e-14 -5.14609e-15 2.15274e-14 72.0936 26.8914 -8.76468 -15.1219 -8.70856 26.6327 -0.347642 18.6331 2.69182 -3.0715e-11 4.14411e-10 -3.13618e-10 -5.81153e-11 7.19768e-10 -5.41334e-10 -3.07098e-11 4.14407e-10 -3.13629e-10 7.73091 5.47488 0.417314 -3.07154e-11 4.14408e-10 -3.13626e-10 2.90554 0.965183 0.102902 -3.07037e-11 4.14403e-10 -3.13623e-10 10.2786 0.731801 0.0259123 -3.07224e-11 4.14404e-10 -3.13615e-10 2.22167 -0.733487 -0.20892 3.29968e-14 -5.1447e-15 2.12043e-14 -72.7716 24.9596 6.30116 14.6387 -8.23851 -25.7553 0.0736174 8.72522 -1.2335 -6.1057e-10 -9.3946e-10 -1.72868e-10 -1.05729e-09 -1.62173e-09 -2.91764e-10 -6.10576e-10 -9.39463e-10 -1.72859e-10 -7.73091 5.47488 -0.417314 -6.10572e-10 -9.39468e-10 -1.72862e-10 -2.90554 0.965183 -0.102902 -6.10579e-10 -9.39468e-10 -1.72867e-10 -10.2786 0.731801 -0.0259123 -6.10562e-10 -9.39465e-10 -1.72871e-10 -2.22167 -0.733487 0.20892 -2.03217e-16 0.0 -3.88251e-19 -4.45477 3.80877 3.16433 0.00613604 -0.20181 0.0472355 -3.54255 -13.7688 -11.8932 2.03217e-16 0.0 3.88251e-19 5.92157 -7.82461 -7.53244 0.0357915 17.8274 -0.36224 2.43624 -13.4166 8.09103
-4.35478 84.0959 37.243 -1.2351 1.171 1.2445 -0.903976 -0.436794 -0.112948 0.663084 -1.92564 -0.0119074 -2.98261 5.04917 -3.63663 7.42839 -1.70236 -6.4691 -0.0 0.0 0.0 -0.0 0.0 0.0 3.62844e-14 -7.5544e-15 2.16178e-14 89.174 32.5972 -11.316 -17.368 -10.023 32.6174 -0.676343 22.6943 3.36939 -9.4119e-11 5.13062e-10 -3.72255e-10 -1.68681e-10 8.90151e-10 -6.41822e-10 -9.41142e-11 5.13056e-10 -3.72265e-10 7.73091 5.47488 0.417314 -9.41192e-11 5.13057e-10 -3.72265e-10 2.90554 0.965183 0.102902 -9.41082e-11 5.13053e-10 -3.7226e-10 10.2786 0.731801 0.0259123 -9.41267e-11 5.13053e-10 -3.72252e-10 2.22167 -0.733487 -0.20892 3.62743e-14 -7.55304e-15 2.13197e-14 -89.561 30.3331 8.07214 16.8728 -9.52417 -31.5378 0.140761 10.635 -1.51224 -6.94814e-10 -1.05057e-09 -2.24026e-10 -1.20336e-09 -1.81386e-09 -3.79553e-10 -6.9482e-10 -1.05057e-09 -2.24016e-10 -7.73091 5.47488 -0.417314 -6.94816e-10 -1.05058e-09 -2.24019e-10 -2.90554 0.965183 -0.102902 -6.94822e-10 -1.05058e-09 -2.24026e-10 -10.2786 0.731801 -0.0259123 -6.94806e-10 -1.05057e-09 -2.24029e-10 -2.22167 -0.733487 0.20892 -2.03217e-16 0.0 -3.88251e-19 -5.42077 5.06077 3.86521 0.00841229 0.209022 0.0741252 -5.24703 -17.4483 -14.8022 2.03217e-16 0.0 3.88251e-19 7.46313 -8.20544 -9.21522 0.0639378 20.5793 -0.438246 3.41581 -16.4215 10.0185
